# xmcd
#
# Track frame offsets:
#	150
#	12126
#	24802
#	36239
#	47286
#	58717
#	71125
#	82667
#	93671
#	105330
#	116231
#	125392
#	136604
#	147313
#	159694
#	169282
#	182100
#	192697
#	201976
#	213331
#	224940
#	235901
#	245133
#	255093
#	264569
#	273870
#	287842
#	299063
#	308060
#	318135
#	328093
#	339169
#
# Disc length: 4653 seconds
# Revision: 0
# Processed by: cddbd v1.5.2PL0 Copyright (c) Steve Scherf et al.
# Submitted via: dBpowerAMP V12.0
#
DISCID=e2122b20
DTITLE=Jim Reeves - The Hit List
DYEAR=2017
DGENRE=Country
TTITLE0=Mexican Joe
TTITLE1=Bimbo
TTITLE2=I Love You (With Ginny Wright)
TTITLE3=Then I'll Stop Loving You
TTITLE4=Penny Candy
TTITLE5=Drinking Tequila
TTITLE6=Yonder Comes A Sucker
TTITLE7=I'm Hurtin' Inside
TTITLE8=Are you The One (With Alvadean Cocker)
TTITLE9=My Lips Are Sealed
TTITLE10=Pickin' A Chicken
TTITLE11=According To My Heart
TTITLE12=The Mother Of A Honky Tonk Girl (With Carol Johnson)
TTITLE13=Am I Losing You (Version 1)
TTITLE14=Waitin' For A Train
TTITLE15=Four Walls
TTITLE16=Two Shadows On Your Window
TTITLE17=Young HEarts
TTITLE18=Anna Marie
TTITLE19=You Belong To Me
TTITLE20=I Love You More
TTITLE21=Overnight
TTITLE22=Blue Boy
TTITLE23=Billy Bayou
TTITLE24=I'd Like To Be
TTITLE25=Whispering Hope
TTITLE26=How Long Has It Been
TTITLE27=Home
TTITLE28=Partners
TTITLE29=I'm Beginning To Forget You
TTITLE30=Satan Can't Hold Me
TTITLE31=A Fool Such As I
EXTD=
EXTT0=
EXTT1=
EXTT2=
EXTT3=
EXTT4=
EXTT5=
EXTT6=
EXTT7=
EXTT8=
EXTT9=
EXTT10=
EXTT11=
EXTT12=
EXTT13=
EXTT14=
EXTT15=
EXTT16=
EXTT17=
EXTT18=
EXTT19=
EXTT20=
EXTT21=
EXTT22=
EXTT23=
EXTT24=
EXTT25=
EXTT26=
EXTT27=
EXTT28=
EXTT29=
EXTT30=
EXTT31=
PLAYORDER=
